<svg xmlns="http://www.w3.org/2000/svg" viewBox="0 0 248.15 52.72"><defs><style>.cls-1,.cls-2{fill:#eaeaea;}.cls-2{font-size:37.82px;font-family:SFProDisplay-Light, SF Pro Display;font-weight:300;}.cls-3{letter-spacing:-0.02em;}.cls-4{font-size:12.71px;fill:#e8e8e8;font-family:SFProDisplay-Thin, SF Pro Display;font-weight:200;}.cls-5{letter-spacing:-0.02em;}.cls-6{letter-spacing:0em;}.cls-7{letter-spacing:0em;}.cls-8{letter-spacing:0em;}.cls-9{letter-spacing:-0.02em;}.cls-10{letter-spacing:-0.01em;}</style></defs><g id="圖層_2" data-name="圖層 2"><g id="圖層_1-2" data-name="圖層 1"><path class="cls-1" d="M1.33,38a53.67,53.67,0,0,1,9.28-3.47A19.68,19.68,0,0,0,15,32.74a25.56,25.56,0,0,0,2.33-1.56,4.11,4.11,0,0,0,1.37-1.86q1.29-3.37,2.56-6.77A1.08,1.08,0,0,0,20.71,21l-.24-.17a5.28,5.28,0,0,1,.48-.28,2.83,2.83,0,0,0,1.59-1.79A12.17,12.17,0,0,1,23,17.63l1.84-4.77c.2-.51.07-.76-.44-1a4.32,4.32,0,0,0-2.08-.22,23.13,23.13,0,0,0-4.72,1,1,1,0,0,0-.52.39c-2.5,3.72-5,7.46-7.48,11.18Q5.2,30.81.83,37.32c-.28.41-.55.83-.83,1.25l.06.06.31-.14ZM14.17,20.82l4.57-7.58a.72.72,0,0,1,.53-.38c.78-.13,1.55-.28,2.33-.42a1.13,1.13,0,0,1,.26,0c.76,0,.9.24.59.89-.9,1.9-1.82,3.8-2.68,5.72a2.33,2.33,0,0,1-1.33,1.25,7.78,7.78,0,0,1-1.15.39c-1,.26-2.07.5-3.1.75l-.34.07,0-.08ZM6.62,33.41c2.05-3.4,4.09-6.8,6.15-10.19a.74.74,0,0,1,.41-.31c1.11-.3,2.21-.61,3.33-.83a2.7,2.7,0,0,1,1.25.13c.49.14.58.42.37.88-.38.85-.78,1.7-1.17,2.55-.61,1.32-1.19,2.65-1.84,3.94a3.83,3.83,0,0,1-.94,1.18,8,8,0,0,1-3.09,1.59c-1.42.4-2.81.85-4.22,1.28l-.42.13C6.53,33.59,6.57,33.49,6.62,33.41Z"/><path class="cls-1" d="M32.23,12.38a6.83,6.83,0,0,0-4.64-.58,2.13,2.13,0,0,0-1.78,1.53c-1.1,3.33-2.29,6.63-3.44,10-.74,2.13-1.49,4.25-2.2,6.39A2.51,2.51,0,0,0,21.54,33a37.93,37.93,0,0,0,6.19,2.62,11.44,11.44,0,0,0,3.29.65,1.23,1.23,0,0,0,1.3-.79,6,6,0,0,0,.4-1.71c.21-3.2.37-6.41.46-8.16.25-4.66.41-7.86.59-11.07a1.65,1.65,0,0,0-.48-1.32A4.66,4.66,0,0,0,32.23,12.38Zm-.29,1.51c-.19,1.36-.34,2.72-.51,4.08q-.48,3.87-.95,7.73l-.69,5.61a.31.31,0,0,0,0,.1c-.09,1.14-.72,1.61-2,1.43a6.42,6.42,0,0,1-3.33-1.36,1.74,1.74,0,0,1-.63-1.9Q26,21.33,28.17,13.07a.68.68,0,0,1,.63-.56c.32,0,.65-.07,1-.1a3.55,3.55,0,0,1,1.71.54A.86.86,0,0,1,31.94,13.89Z"/><path class="cls-1" d="M40,36.1a32.21,32.21,0,0,0,5.48-1.51,17.56,17.56,0,0,0,3.81-1.82,2.2,2.2,0,0,0,1.15-2.13,5.67,5.67,0,0,0-.27-1.35q-2.76-8.12-5.52-16.23A1.62,1.62,0,0,0,43.52,12a6.43,6.43,0,0,0-5.83.82,2,2,0,0,0-1,2c.05.77.09,1.54.13,2.31.11,2.31.21,4.62.32,6.92.13,2.75.25,5.5.39,8.24a17.78,17.78,0,0,0,.25,2.52C38.05,35.91,38.74,36.29,40,36.1ZM38.6,13.75a.78.78,0,0,1,.5-.82A3.65,3.65,0,0,1,41,12.41h.23c.87,0,1,.13,1.23.94q2.07,8,4.13,16.06a1.89,1.89,0,0,1-1,2.35,7.82,7.82,0,0,1-2.89,1,2.38,2.38,0,0,1-.46,0,1.32,1.32,0,0,1-1.53-1.29c-.25-2-.48-3.95-.71-5.93l-1-8.19C38.89,16.2,38.76,15,38.6,13.75Z"/><path class="cls-1" d="M36.86,17.05c.11,2.31.21,4.62.32,6.92.13,2.75.25,5.5.39,8.24-.14-2.74-.26-5.49-.39-8.24C37.07,21.67,37,19.36,36.86,17.05Z"/><path class="cls-1" d="M65.24,30.39C64,28.6,62.82,26.81,61.59,25a3.71,3.71,0,0,0-1.78-1.43c-.67-.25-1.32-.57-2-.86a2.19,2.19,0,0,1-.29-.17l0-.1c.13,0,.27,0,.4,0,.44,0,.88.05,1.32.06s.49-.13.3-.5a4.6,4.6,0,0,0-.37-.6c-1.78-2.67-3.58-5.32-5.34-8a1.82,1.82,0,0,0-1.24-.89c-.39-.08-.77-.21-1.16-.32a1,1,0,0,0,.15.43l3.77,6.22c.31.51.64,1,.93,1.55.09.15.18.41.11.52s-.34.13-.53.14a3.13,3.13,0,0,1-.68-.06c-1.19-.21-2.38-.44-3.57-.64a.61.61,0,0,1-.54-.39q-1.71-3.72-3.43-7.43c-.16-.35-.26-.81-.54-1A2.66,2.66,0,0,0,46,11.43h-.81a3.6,3.6,0,0,0,.13.42l3.54,9.26L53.48,33.3c.07.21.15.34.42.36.91.06,1.82.15,2.73.24.33,0,.65.09,1,.15L52,21.76a1.85,1.85,0,0,1,.34,0c1.17.22,2.36.4,3.52.7a4.59,4.59,0,0,1,2.91,2.06c2.35,3.88,4.68,7.77,7,11.65a1.09,1.09,0,0,0,.42.38l4.16,2,.32.13.06-.06-.25-.39Q67.86,34.28,65.24,30.39Z"/><path class="cls-1" d="M1.37,41.37a58.56,58.56,0,0,1,7.52-3.64A27.78,27.78,0,0,1,16.68,36a37.74,37.74,0,0,1,13.68,1.83l1.36.43,0-.09c-.89-.31-1.77-.63-2.66-.92a37.27,37.27,0,0,0-9.87-1.91,28.24,28.24,0,0,0-7.83.67,33.66,33.66,0,0,0-6.58,2.34c-1.43.67-2.85,1.36-4.26,2-.1,0-.23.2-.21.26.11.33.26.65.41,1Z"/><path class="cls-1" d="M29.23,38.39a37.09,37.09,0,0,0-11.13-.28A28.5,28.5,0,0,0,7.85,41.58c-2.37,1.33-4.51,3-6.73,4.52-.16.11-.2.21-.08.37s.27.39.39.59.24.19.41.06c.46-.38.94-.74,1.41-1.11a39.88,39.88,0,0,1,7.89-5.1,28.87,28.87,0,0,1,8.68-2.43,39.12,39.12,0,0,1,9.55.12l2.4.32v-.05l-.31-.07Z"/><path class="cls-1" d="M70.13,40.43c-.41-.18-.81-.38-1.21-.57a63.69,63.69,0,0,0-6.6-2.93,28.88,28.88,0,0,0-5.79-1.38,31.56,31.56,0,0,0-9.65.35A44.5,44.5,0,0,0,39,38.18s-.06,0-.16.11c.91-.27,1.73-.52,2.55-.75A38,38,0,0,1,51.64,36a28,28,0,0,1,8.48,1.21A38,38,0,0,1,66.78,40c1,.53,2,1.09,3.12,1.67.14-.32.26-.61.39-.89S70.32,40.52,70.13,40.43Z"/><path class="cls-1" d="M70,43.3c-.32-.18-.63-.39-1-.57-1.9-1.07-3.77-2.21-5.72-3.19a27.49,27.49,0,0,0-12.1-2.86,38.34,38.34,0,0,0-9,1c-1.21.28-2.42.61-3.63.91l0,.08c1.29-.27,2.57-.55,3.86-.8a34.94,34.94,0,0,1,12-.29,28,28,0,0,1,8.37,2.76,60.37,60.37,0,0,1,5.88,3.55l.93.61c.17-.31.32-.59.48-.85S70.13,43.39,70,43.3Z"/><path class="cls-1" d="M69.4,46a3.7,3.7,0,0,1-.46-.31c-1.75-1.2-3.46-2.47-5.27-3.59a28.9,28.9,0,0,0-16.14-4.3,42.07,42.07,0,0,0-6.62.66l-2.11.4.16,0,.52-.06a40.64,40.64,0,0,1,12-.29A28.4,28.4,0,0,1,59,40.65a36,36,0,0,1,7.84,4.88c.73.58,1.47,1.15,2.26,1.76.17-.25.3-.49.46-.7S69.68,46.16,69.4,46Z"/><path class="cls-1" d="M31.87,38.58l-.22-.08a45.08,45.08,0,0,0-9.93-1.78A29,29,0,0,0,7.86,39.29a76.08,76.08,0,0,0-6.78,3.78c-.61.37-.61.38-.26,1,.23.44.23.44.64.17l.14-.1A63.84,63.84,0,0,1,8,40.31a28,28,0,0,1,10.18-3,37.72,37.72,0,0,1,11.31.76l2.5.55S31.89,38.58,31.87,38.58Z"/><text class="cls-2" transform="translate(78.15 33.83) scale(1.08 1)">In<tspan class="cls-3" x="27.11" y="0">t</tspan><tspan x="37.19" y="0">elliBook</tspan></text><text class="cls-4" transform="translate(80.26 49.66)"><tspan class="cls-5">A</tspan><tspan class="cls-6" x="7.37" y="0">ccrue </tspan><tspan class="cls-7" x="38.8" y="0">y</tspan><tspan class="cls-8" x="44.28" y="0">our in</tspan><tspan class="cls-9" x="72.01" y="0">t</tspan><tspan x="75.05" y="0">elligence </tspan><tspan class="cls-7" x="122.17" y="0">b</tspan><tspan x="128.9" y="0">y boo</tspan><tspan class="cls-10" x="156.87" y="0">k</tspan><tspan x="162.35" y="0">s</tspan></text></g></g></svg>